<svg width="556" height="557" xmlns="http://www.w3.org/2000/svg" xmlns:xlink="http://www.w3.org/1999/xlink" xml:space="preserve" overflow="hidden"><g transform="translate(-500 -64)"><g><g><g><g><path d="M971.007 378.908C966.987 372.225 958.896 369.188 951.472 371.576 913.78 382.065 829.673 410.125 783.89 461.405 783.838 461.469 783.792 461.451 783.792 461.37L783.792 366.167 786.137 366.167C797.643 366.305 809.125 365.08 820.343 362.518 852.197 354.873 875.155 337.753 888.54 311.627 923.742 242.943 880.877 136.417 879.036 131.917L878.677 131.193C875.752 126.06 870.254 122.939 864.348 123.056 858.793 123.167 853.75 126.328 851.23 131.28L826.905 174.717 826.859 174.717 824.206 179.565 821.513 184.372 791.784 131.355C787.89 123.74 778.56 120.723 770.945 124.617 768.072 126.085 765.729 128.415 764.245 131.28L734.505 184.36 704.712 131.193C701.783 126.068 696.292 122.948 690.389 123.056 684.596 123.233 679.397 126.662 676.953 131.917 675.105 136.423 632.195 243.076 667.321 311.754 680.642 337.776 703.432 354.844 735.084 362.489 746.339 365.075 757.863 366.31 769.411 366.167L772.208 366.167 772.208 462.54C772.208 462.621 772.162 462.638 772.11 462.575 726.616 410.589 641.49 382.169 603.601 371.646 596.168 369.224 588.045 372.231 583.979 378.908 579.732 385.693 580.644 394.498 586.192 400.268 618.477 433.586 640.809 475.265 650.664 520.601 656.032 548.386 680.204 568.56 708.5 568.875L846.457 568.875C874.685 568.584 898.827 548.506 904.258 520.804 914.115 475.371 936.488 433.602 968.847 400.222 974.362 394.45 975.252 385.67 971.007 378.908ZM834.289 185.212 861.441 136.741C862.026 135.478 863.281 134.659 864.672 134.633 866.216 134.634 867.653 135.423 868.483 136.724 871.379 144.114 909.94 244.507 878.225 306.368 866.445 329.337 846.064 344.436 817.638 351.253 807.306 353.601 796.732 354.719 786.137 354.583L784.238 354.583 784.238 313.758C784.237 289.483 790.339 265.598 801.983 244.298ZM774.392 136.863C775.065 135.469 776.453 134.56 778 134.5 779.572 134.576 780.973 135.514 781.643 136.938L814.962 196.413 791.796 238.75C785.936 249.521 781.364 260.943 778.174 272.782 775.017 261.571 770.617 250.749 765.056 240.516L740.991 196.471ZM737.817 351.23C709.595 344.419 689.347 329.366 677.642 306.501 644.931 242.578 687.245 137.384 687.488 136.741 688.076 135.478 689.332 134.66 690.725 134.633L690.841 134.633C692.441 134.666 693.902 135.549 694.675 136.95L718.925 180.254 754.903 246.059C766.546 267.357 772.648 291.24 772.648 315.513L772.648 354.583 769.405 354.583C758.78 354.724 748.176 353.598 737.817 351.23ZM708.5 557.292C685.754 557.058 666.324 540.828 662.045 518.487 651.768 470.969 628.4 427.275 594.584 392.345 592.63 390.405 592.299 387.362 593.79 385.047 594.74 383.438 596.468 382.448 598.337 382.441 599.03 382.447 599.719 382.554 600.381 382.76 639.446 393.637 729.941 423.881 770.448 478.965 768.901 481.357 767.413 483.778 766.046 486.257 753.096 510.819 745.972 544.747 743.65 557.292ZM960.438 392.287C926.547 427.281 903.139 471.071 892.866 518.69 888.526 540.946 869.131 557.078 846.457 557.292L755.453 557.292C759.512 534.634 766.508 512.602 776.263 491.753 811.233 428.444 912.633 394.453 954.715 382.719 957.152 381.823 959.88 382.799 961.196 385.036 962.687 387.329 962.371 390.353 960.438 392.287Z" fill="#000000" fill-rule="nonzero" fill-opacity="1"/></g></g></g></g></g></svg>